ffmpeg started on 2026-01-18 at 20:39:45
Report written to "C:\Dev\OSPanel\domains\Java-AT\modules\ffmpeg\FFMetrics\reports\ssim_report-6.txt"
Log level: 32
Command line:
ffmpeg -hide_banner -nostdin -r 24000/1001 -i "F:\\Convert\\files\\[DC] Make Heroine ga Oosugiru - 07_Telegram_HEVC(165).mkv" -r 24000/1001 -i "F:\\Convert\\files\\[DC] Make Heroine ga Oosugiru - 07_Telegram.mp4" -lavfi "[0:v]settb=AVTB,setpts=PTS-STARTPTS,format=pix_fmts=yuv420p10le,fps=24000/1001,scale=1920:1080:flags=lanczos:param0=3:out_range=limited:out_color_matrix=bt709:out_chroma_loc=left,setsar=1/1,setdar=(1920/1080)*(1/1),colorspace=format=yuv420p10:range=tv:primaries=bt709:trc=bt709:space=bt709:fast=0[main];[1:v]settb=AVTB,setpts=PTS-STARTPTS,format=pix_fmts=yuv420p,fps=24000/1001,scale=1920:1080:flags=lanczos:param0=3:out_range=limited:out_color_matrix=bt709:out_chroma_loc=left,setsar=1.000,setdar=1.778,colorspace=format=yuv420p:range=tv:primaries=bt709:trc=bt709:space=bt709:fast=0[ref];[main][ref]ssim=eof_action=endall:stats_file='C\\:/Dev/OSPanel/domains/Java-AT/modules/ffmpeg/FFMetrics/logs/ssim_logfile-6.txt'" -f null -
Input #0, matroska,webm, from 'F:\Convert\files\[DC] Make Heroine ga Oosugiru - 07_Telegram_HEVC(165).mkv':
  Metadata:
    COMPATIBLE_BRANDS: isomiso2avc1mp41
    MAJOR_BRAND     : isom
    MINOR_VERSION   : 512
    ENCODER         : Lavf61.7.100
  Duration: 00:24:06.79, start: -0.021000, bitrate: 975 kb/s
  Stream #0:0: Video: hevc (Main 10), yuv420p10le(tv, bt709, progressive), 1920x1080 [SAR 1:1 DAR 16:9], 23.98 fps, 23.98 tbr, 1k tbn (default)
      Metadata:
        HANDLER_NAME    : VideoHandler
        VENDOR_ID       : [0][0][0][0]
        ENCODER         : Lavc61.19.100 libx265
        BPS             : 778125
        DURATION        : 00:24:06.569708333
        NUMBER_OF_FRAMES: 34683
        NUMBER_OF_BYTES : 140701491
        _STATISTICS_WRITING_APP: mkvpropedit v94.0 ('Initiate') 64-bit
        _STATISTICS_WRITING_DATE_UTC: 2026-01-18 10:39:54
        _STATISTICS_TAGS: BPS DURATION NUMBER_OF_FRAMES NUMBER_OF_BYTES
  Stream #0:1: Audio: aac (LC), 48000 Hz, stereo, fltp (default)
      Metadata:
        HANDLER_NAME    : SoundHandler
        VENDOR_ID       : [0][0][0][0]
        ENCODER         : Lavc61.19.100 aac
        BPS             : 193194
        DURATION        : 00:24:06.784000000
        NUMBER_OF_FRAMES: 67819
        NUMBER_OF_BYTES : 34938755
        _STATISTICS_WRITING_APP: mkvpropedit v94.0 ('Initiate') 64-bit
        _STATISTICS_WRITING_DATE_UTC: 2026-01-18 10:39:54
        _STATISTICS_TAGS: BPS DURATION NUMBER_OF_FRAMES NUMBER_OF_BYTES
Input #1, mov,mp4,m4a,3gp,3g2,mj2, from 'F:\Convert\files\[DC] Make Heroine ga Oosugiru - 07_Telegram.mp4':
  Metadata:
    major_brand     : isom
    minor_version   : 512
    compatible_brands: isomiso2avc1mp41
    encoder         : Lavf60.16.100
  Duration: 00:24:06.74, start: 0.000000, bitrate: 3764 kb/s
  Stream #1:0[0x1](und): Video: h264 (High) (avc1 / 0x31637661), yuv420p(tv, bt709, progressive), 1920x1080 [SAR 1:1 DAR 16:9], 3616 kb/s, 23.98 fps, 23.98 tbr, 24k tbn (default)
      Metadata:
        handler_name    : VideoHandler
        vendor_id       : [0][0][0][0]
        encoder         : Lavc60.31.102 h264_qsv
  Stream #1:1[0x2](und): Audio: aac (HE-AACv2) (mp4a / 0x6134706D), 48000 Hz, stereo, fltp, 144 kb/s (default)
      Metadata:
        handler_name    : SoundHandler
        vendor_id       : [0][0][0][0]
Stream mapping:
  Stream #0:0 (hevc) -> settb:default
  Stream #1:0 (h264) -> settb:default
  ssim:default -> Stream #0:0 (wrapped_avframe)
  Stream #0:1 -> #0:1 (aac (native) -> pcm_s16le (native))
Output #0, null, to 'pipe:':
  Metadata:
    COMPATIBLE_BRANDS: isomiso2avc1mp41
    MAJOR_BRAND     : isom
    MINOR_VERSION   : 512
    encoder         : Lavf61.7.100
  Stream #0:0: Video: wrapped_avframe, yuv420p10le(tv, bt709, progressive), 1920x1080 [SAR 1:1 DAR 16:9], q=2-31, 200 kb/s, 23.98 fps, 23.98 tbn
      Metadata:
        encoder         : Lavc61.19.100 wrapped_avframe
  Stream #0:1: Audio: pcm_s16le, 48000 Hz, stereo, s16, 1536 kb/s (default)
      Metadata:
        HANDLER_NAME    : SoundHandler
        VENDOR_ID       : [0][0][0][0]
        _STATISTICS_TAGS: BPS DURATION NUMBER_OF_FRAMES NUMBER_OF_BYTES
        BPS             : 193194
        DURATION        : 00:24:06.784000000
        NUMBER_OF_FRAMES: 67819
        NUMBER_OF_BYTES : 34938755
        _STATISTICS_WRITING_APP: mkvpropedit v94.0 ('Initiate') 64-bit
        _STATISTICS_WRITING_DATE_UTC: 2026-01-18 10:39:54
        encoder         : Lavc61.19.100 pcm_s16le
frame=  137 fps=0.0 q=-0.0 size=N/A time=00:00:05.71 bitrate=N/A speed=  11x    frame=  328 fps=318 q=-0.0 size=N/A time=00:00:13.68 bitrate=N/A speed=13.2x    frame=  523 fps=339 q=-0.0 size=N/A time=00:00:21.81 bitrate=N/A speed=14.1x    frame=  722 fps=349 q=-0.0 size=N/A time=00:00:30.11 bitrate=N/A speed=14.5x    frame=  896 fps=347 q=-0.0 size=N/A time=00:00:37.37 bitrate=N/A speed=14.5x    frame= 1052 fps=340 q=-0.0 size=N/A time=00:00:43.87 bitrate=N/A speed=14.2x    frame= 1215 fps=337 q=-0.0 size=N/A time=00:00:50.67 bitrate=N/A speed=  14x    frame= 1394 fps=337 q=-0.0 size=N/A time=00:00:58.14 bitrate=N/A speed=14.1x    frame= 1547 fps=332 q=-0.0 size=N/A time=00:01:04.52 bitrate=N/A speed=13.8x    frame= 1703 fps=329 q=-0.0 size=N/A time=00:01:11.02 bitrate=N/A speed=13.7x    frame= 1881 fps=331 q=-0.0 size=N/A time=00:01:18.45 bitrate=N/A speed=13.8x    frame= 2045 fps=329 q=-0.0 size=N/A time=00:01:25.29 bitrate=N/A speed=13.7x    frame= 2160 fps=321 q=-0.0 size=N/A time=00:01:30.09 bitrate=N/A speed=13.4x    frame= 2324 fps=321 q=-0.0 size=N/A time=00:01:36.93 bitrate=N/A speed=13.4x    frame= 2465 fps=318 q=-0.0 size=N/A time=00:01:42.81 bitrate=N/A speed=13.3x    frame= 2614 fps=316 q=-0.0 size=N/A time=00:01:49.02 bitrate=N/A speed=13.2x    frame= 2806 fps=319 q=-0.0 size=N/A time=00:01:57.03 bitrate=N/A speed=13.3x    frame= 2987 fps=321 q=-0.0 size=N/A time=00:02:04.58 bitrate=N/A speed=13.4x    frame= 3182 fps=323 q=-0.0 size=N/A time=00:02:12.71 bitrate=N/A speed=13.5x    frame= 3377 fps=326 q=-0.0 size=N/A time=00:02:20.84 bitrate=N/A speed=13.6x    frame= 3571 fps=329 q=-0.0 size=N/A time=00:02:28.94 bitrate=N/A speed=13.7x    frame= 3765 fps=331 q=-0.0 size=N/A time=00:02:37.03 bitrate=N/A speed=13.8x    frame= 3968 fps=333 q=-0.0 size=N/A time=00:02:45.49 bitrate=N/A speed=13.9x    frame= 4165 fps=336 q=-0.0 size=N/A time=00:02:53.71 bitrate=N/A speed=  14x    frame= 4361 fps=337 q=-0.0 size=N/A time=00:03:01.89 bitrate=N/A speed=14.1x    frame= 4555 fps=339 q=-0.0 size=N/A time=00:03:09.98 bitrate=N/A speed=14.1x    frame= 4758 fps=341 q=-0.0 size=N/A time=00:03:18.44 bitrate=N/A speed=14.2x    frame= 4954 fps=342 q=-0.0 size=N/A time=00:03:26.62 bitrate=N/A speed=14.3x    frame= 5148 fps=344 q=-0.0 size=N/A time=00:03:34.71 bitrate=N/A speed=14.3x    frame= 5338 fps=344 q=-0.0 size=N/A time=00:03:42.63 bitrate=N/A speed=14.4x    frame= 5539 fps=346 q=-0.0 size=N/A time=00:03:51.02 bitrate=N/A speed=14.4x    frame= 5739 fps=347 q=-0.0 size=N/A time=00:03:59.36 bitrate=N/A speed=14.5x    frame= 5933 fps=348 q=-0.0 size=N/A time=00:04:07.45 bitrate=N/A speed=14.5x    frame= 6130 fps=349 q=-0.0 size=N/A time=00:04:15.67 bitrate=N/A speed=14.6x    frame= 6323 fps=350 q=-0.0 size=N/A time=00:04:23.72 bitrate=N/A speed=14.6x    frame= 6522 fps=351 q=-0.0 size=N/A time=00:04:32.02 bitrate=N/A speed=14.6x    frame= 6717 fps=351 q=-0.0 size=N/A time=00:04:40.15 bitrate=N/A speed=14.7x    frame= 6912 fps=352 q=-0.0 size=N/A time=00:04:48.28 bitrate=N/A speed=14.7x    frame= 7104 fps=353 q=-0.0 size=N/A time=00:04:56.29 bitrate=N/A speed=14.7x    frame= 7296 fps=353 q=-0.0 size=N/A time=00:05:04.30 bitrate=N/A speed=14.7x    frame= 7498 fps=354 q=-0.0 size=N/A time=00:05:12.72 bitrate=N/A speed=14.8x    frame= 7683 fps=354 q=-0.0 size=N/A time=00:05:20.44 bitrate=N/A speed=14.8x    frame= 7877 fps=355 q=-0.0 size=N/A time=00:05:28.53 bitrate=N/A speed=14.8x    frame= 8066 fps=355 q=-0.0 size=N/A time=00:05:36.41 bitrate=N/A speed=14.8x    frame= 8259 fps=356 q=-0.0 size=N/A time=00:05:44.46 bitrate=N/A speed=14.8x    frame= 8457 fps=356 q=-0.0 size=N/A time=00:05:52.72 bitrate=N/A speed=14.8x    frame= 8651 fps=356 q=-0.0 size=N/A time=00:06:00.81 bitrate=N/A speed=14.9x    frame= 8847 fps=357 q=-0.0 size=N/A time=00:06:08.99 bitrate=N/A speed=14.9x    frame= 9036 fps=357 q=-0.0 size=N/A time=00:06:16.87 bitrate=N/A speed=14.9x    frame= 9241 fps=358 q=-0.0 size=N/A time=00:06:25.42 bitrate=N/A speed=14.9x    frame= 9432 fps=358 q=-0.0 size=N/A time=00:06:33.39 bitrate=N/A speed=14.9x    frame= 9623 fps=358 q=-0.0 size=N/A time=00:06:41.35 bitrate=N/A speed=  15x    frame= 9820 fps=359 q=-0.0 size=N/A time=00:06:49.57 bitrate=N/A speed=  15x    frame=10020 fps=359 q=-0.0 size=N/A time=00:06:57.91 bitrate=N/A speed=  15x    frame=10214 fps=360 q=-0.0 size=N/A time=00:07:06.00 bitrate=N/A speed=  15x    frame=10401 fps=360 q=-0.0 size=N/A time=00:07:13.80 bitrate=N/A speed=  15x    frame=10598 fps=360 q=-0.0 size=N/A time=00:07:22.02 bitrate=N/A speed=  15x    frame=10797 fps=361 q=-0.0 size=N/A time=00:07:30.32 bitrate=N/A speed=  15x    frame=10995 fps=361 q=-0.0 size=N/A time=00:07:38.58 bitrate=N/A speed=  15x    frame=11178 fps=361 q=-0.0 size=N/A time=00:07:46.21 bitrate=N/A speed=  15x    frame=11378 fps=361 q=-0.0 size=N/A time=00:07:54.55 bitrate=N/A speed=15.1x    frame=11574 fps=361 q=-0.0 size=N/A time=00:08:02.73 bitrate=N/A speed=15.1x    frame=11768 fps=362 q=-0.0 size=N/A time=00:08:10.82 bitrate=N/A speed=15.1x    frame=11965 fps=362 q=-0.0 size=N/A time=00:08:19.04 bitrate=N/A speed=15.1x    frame=12163 fps=362 q=-0.0 size=N/A time=00:08:27.29 bitrate=N/A speed=15.1x    frame=12356 fps=362 q=-0.0 size=N/A time=00:08:35.34 bitrate=N/A speed=15.1x    frame=12549 fps=363 q=-0.0 size=N/A time=00:08:43.39 bitrate=N/A speed=15.1x    frame=12743 fps=363 q=-0.0 size=N/A time=00:08:51.48 bitrate=N/A speed=15.1x    frame=12947 fps=363 q=-0.0 size=N/A time=00:08:59.99 bitrate=N/A speed=15.1x    frame=13142 fps=363 q=-0.0 size=N/A time=00:09:08.13 bitrate=N/A speed=15.2x    frame=13325 fps=363 q=-0.0 size=N/A time=00:09:15.76 bitrate=N/A speed=15.2x    frame=13518 fps=364 q=-0.0 size=N/A time=00:09:23.81 bitrate=N/A speed=15.2x    frame=13721 fps=364 q=-0.0 size=N/A time=00:09:32.28 bitrate=N/A speed=15.2x    frame=13912 fps=364 q=-0.0 size=N/A time=00:09:40.24 bitrate=N/A speed=15.2x    frame=14094 fps=364 q=-0.0 size=N/A time=00:09:47.83 bitrate=N/A speed=15.2x    frame=14283 fps=364 q=-0.0 size=N/A time=00:09:55.72 bitrate=N/A speed=15.2x    frame=14488 fps=364 q=-0.0 size=N/A time=00:10:04.27 bitrate=N/A speed=15.2x    frame=14673 fps=364 q=-0.0 size=N/A time=00:10:11.98 bitrate=N/A speed=15.2x    frame=14868 fps=364 q=-0.0 size=N/A time=00:10:20.11 bitrate=N/A speed=15.2x    frame=15064 fps=365 q=-0.0 size=N/A time=00:10:28.29 bitrate=N/A speed=15.2x    frame=15233 fps=364 q=-0.0 size=N/A time=00:10:35.34 bitrate=N/A speed=15.2x    frame=15429 fps=364 q=-0.0 size=N/A time=00:10:43.51 bitrate=N/A speed=15.2x    frame=15624 fps=364 q=-0.0 size=N/A time=00:10:51.65 bitrate=N/A speed=15.2x    frame=15820 fps=365 q=-0.0 size=N/A time=00:10:59.82 bitrate=N/A speed=15.2x    frame=16011 fps=365 q=-0.0 size=N/A time=00:11:07.79 bitrate=N/A speed=15.2x    frame=16207 fps=365 q=-0.0 size=N/A time=00:11:15.96 bitrate=N/A speed=15.2x    frame=16409 fps=365 q=-0.0 size=N/A time=00:11:24.39 bitrate=N/A speed=15.2x    frame=16602 fps=365 q=-0.0 size=N/A time=00:11:32.44 bitrate=N/A speed=15.2x    frame=16796 fps=366 q=-0.0 size=N/A time=00:11:40.53 bitrate=N/A speed=15.2x    frame=17001 fps=366 q=-0.0 size=N/A time=00:11:49.08 bitrate=N/A speed=15.3x    frame=17196 fps=366 q=-0.0 size=N/A time=00:11:57.21 bitrate=N/A speed=15.3x    frame=17389 fps=366 q=-0.0 size=N/A time=00:12:05.26 bitrate=N/A speed=15.3x    frame=17580 fps=366 q=-0.0 size=N/A time=00:12:13.23 bitrate=N/A speed=15.3x    frame=17771 fps=366 q=-0.0 size=N/A time=00:12:21.19 bitrate=N/A speed=15.3x    frame=17970 fps=366 q=-0.0 size=N/A time=00:12:29.49 bitrate=N/A speed=15.3x    frame=18166 fps=367 q=-0.0 size=N/A time=00:12:37.67 bitrate=N/A speed=15.3x    frame=18341 fps=366 q=-0.0 size=N/A time=00:12:44.97 bitrate=N/A speed=15.3x    frame=18537 fps=366 q=-0.0 size=N/A time=00:12:53.14 bitrate=N/A speed=15.3x    frame=18735 fps=367 q=-0.0 size=N/A time=00:13:01.40 bitrate=N/A speed=15.3x    frame=18931 fps=367 q=-0.0 size=N/A time=00:13:09.58 bitrate=N/A speed=15.3x    frame=19123 fps=367 q=-0.0 size=N/A time=00:13:17.58 bitrate=N/A speed=15.3x    frame=19327 fps=367 q=-0.0 size=N/A time=00:13:26.09 bitrate=N/A speed=15.3x    frame=19521 fps=367 q=-0.0 size=N/A time=00:13:34.18 bitrate=N/A speed=15.3x    frame=19711 fps=367 q=-0.0 size=N/A time=00:13:42.11 bitrate=N/A speed=15.3x    frame=19912 fps=367 q=-0.0 size=N/A time=00:13:50.49 bitrate=N/A speed=15.3x    frame=20110 fps=367 q=-0.0 size=N/A time=00:13:58.75 bitrate=N/A speed=15.3x    frame=20306 fps=368 q=-0.0 size=N/A time=00:14:06.92 bitrate=N/A speed=15.3x    frame=20496 fps=368 q=-0.0 size=N/A time=00:14:14.85 bitrate=N/A speed=15.3x    frame=20680 fps=368 q=-0.0 size=N/A time=00:14:22.52 bitrate=N/A speed=15.3x    frame=20881 fps=368 q=-0.0 size=N/A time=00:14:30.91 bitrate=N/A speed=15.3x    frame=21076 fps=368 q=-0.0 size=N/A time=00:14:39.04 bitrate=N/A speed=15.3x    frame=21272 fps=368 q=-0.0 size=N/A time=00:14:47.21 bitrate=N/A speed=15.3x    frame=21464 fps=368 q=-0.0 size=N/A time=00:14:55.22 bitrate=N/A speed=15.3x    frame=21663 fps=368 q=-0.0 size=N/A time=00:15:03.52 bitrate=N/A speed=15.4x    frame=21858 fps=368 q=-0.0 size=N/A time=00:15:11.66 bitrate=N/A speed=15.4x    frame=22055 fps=368 q=-0.0 size=N/A time=00:15:19.87 bitrate=N/A speed=15.4x    frame=22249 fps=368 q=-0.0 size=N/A time=00:15:27.96 bitrate=N/A speed=15.4x    frame=22453 fps=369 q=-0.0 size=N/A time=00:15:36.47 bitrate=N/A speed=15.4x    frame=22643 fps=369 q=-0.0 size=N/A time=00:15:44.40 bitrate=N/A speed=15.4x    frame=22836 fps=369 q=-0.0 size=N/A time=00:15:52.45 bitrate=N/A speed=15.4x    frame=23033 fps=369 q=-0.0 size=N/A time=00:16:00.66 bitrate=N/A speed=15.4x    frame=23229 fps=369 q=-0.0 size=N/A time=00:16:08.84 bitrate=N/A speed=15.4x    frame=23424 fps=369 q=-0.0 size=N/A time=00:16:16.97 bitrate=N/A speed=15.4x    frame=23627 fps=369 q=-0.0 size=N/A time=00:16:25.44 bitrate=N/A speed=15.4x    frame=23819 fps=369 q=-0.0 size=N/A time=00:16:33.45 bitrate=N/A speed=15.4x    frame=24015 fps=369 q=-0.0 size=N/A time=00:16:41.62 bitrate=N/A speed=15.4x    frame=24208 fps=369 q=-0.0 size=N/A time=00:16:49.67 bitrate=N/A speed=15.4x    frame=24405 fps=369 q=-0.0 size=N/A time=00:16:57.89 bitrate=N/A speed=15.4x    frame=24605 fps=370 q=-0.0 size=N/A time=00:17:06.23 bitrate=N/A speed=15.4x    frame=24800 fps=370 q=-0.0 size=N/A time=00:17:14.36 bitrate=N/A speed=15.4x    frame=25000 fps=370 q=-0.0 size=N/A time=00:17:22.70 bitrate=N/A speed=15.4x    frame=25196 fps=370 q=-0.0 size=N/A time=00:17:30.88 bitrate=N/A speed=15.4x    frame=25387 fps=370 q=-0.0 size=N/A time=00:17:38.84 bitrate=N/A speed=15.4x    frame=25583 fps=370 q=-0.0 size=N/A time=00:17:47.02 bitrate=N/A speed=15.4x    frame=25780 fps=370 q=-0.0 size=N/A time=00:17:55.24 bitrate=N/A speed=15.4x    frame=25975 fps=370 q=-0.0 size=N/A time=00:18:03.37 bitrate=N/A speed=15.4x    frame=26172 fps=370 q=-0.0 size=N/A time=00:18:11.59 bitrate=N/A speed=15.4x    frame=26364 fps=370 q=-0.0 size=N/A time=00:18:19.59 bitrate=N/A speed=15.4x    frame=26567 fps=370 q=-0.0 size=N/A time=00:18:28.06 bitrate=N/A speed=15.4x    frame=26765 fps=370 q=-0.0 size=N/A time=00:18:36.32 bitrate=N/A speed=15.4x    frame=26955 fps=370 q=-0.0 size=N/A time=00:18:44.24 bitrate=N/A speed=15.4x    frame=27142 fps=370 q=-0.0 size=N/A time=00:18:52.04 bitrate=N/A speed=15.4x    frame=27329 fps=370 q=-0.0 size=N/A time=00:18:59.84 bitrate=N/A speed=15.4x    frame=27522 fps=370 q=-0.0 size=N/A time=00:19:07.89 bitrate=N/A speed=15.4x    frame=27717 fps=370 q=-0.0 size=N/A time=00:19:16.02 bitrate=N/A speed=15.4x    frame=27909 fps=370 q=-0.0 size=N/A time=00:19:24.03 bitrate=N/A speed=15.4x    frame=28102 fps=370 q=-0.0 size=N/A time=00:19:32.08 bitrate=N/A speed=15.5x    frame=28297 fps=371 q=-0.0 size=N/A time=00:19:40.22 bitrate=N/A speed=15.5x    frame=28495 fps=371 q=-0.0 size=N/A time=00:19:48.47 bitrate=N/A speed=15.5x    frame=28689 fps=371 q=-0.0 size=N/A time=00:19:56.57 bitrate=N/A speed=15.5x    frame=28863 fps=370 q=-0.0 size=N/A time=00:20:03.82 bitrate=N/A speed=15.4x    frame=29044 fps=370 q=-0.0 size=N/A time=00:20:11.37 bitrate=N/A speed=15.4x    frame=29240 fps=370 q=-0.0 size=N/A time=00:20:19.55 bitrate=N/A speed=15.4x    frame=29429 fps=370 q=-0.0 size=N/A time=00:20:27.43 bitrate=N/A speed=15.4x    frame=29607 fps=370 q=-0.0 size=N/A time=00:20:34.85 bitrate=N/A speed=15.4x    frame=29789 fps=370 q=-0.0 size=N/A time=00:20:42.44 bitrate=N/A speed=15.4x    frame=29973 fps=370 q=-0.0 size=N/A time=00:20:50.12 bitrate=N/A speed=15.4x    frame=30158 fps=370 q=-0.0 size=N/A time=00:20:57.83 bitrate=N/A speed=15.4x    frame=30343 fps=370 q=-0.0 size=N/A time=00:21:05.55 bitrate=N/A speed=15.4x    frame=30537 fps=370 q=-0.0 size=N/A time=00:21:13.64 bitrate=N/A speed=15.4x    frame=30731 fps=370 q=-0.0 size=N/A time=00:21:21.73 bitrate=N/A speed=15.4x    frame=30933 fps=370 q=-0.0 size=N/A time=00:21:30.16 bitrate=N/A speed=15.4x    frame=31122 fps=370 q=-0.0 size=N/A time=00:21:38.04 bitrate=N/A speed=15.4x    frame=31317 fps=370 q=-0.0 size=N/A time=00:21:46.17 bitrate=N/A speed=15.4x    frame=31504 fps=370 q=-0.0 size=N/A time=00:21:53.97 bitrate=N/A speed=15.4x    frame=31696 fps=370 q=-0.0 size=N/A time=00:22:01.98 bitrate=N/A speed=15.4x    frame=31888 fps=370 q=-0.0 size=N/A time=00:22:09.99 bitrate=N/A speed=15.4x    frame=32075 fps=370 q=-0.0 size=N/A time=00:22:17.79 bitrate=N/A speed=15.4x    frame=32263 fps=370 q=-0.0 size=N/A time=00:22:25.63 bitrate=N/A speed=15.4x    frame=32465 fps=370 q=-0.0 size=N/A time=00:22:34.06 bitrate=N/A speed=15.4x    frame=32646 fps=370 q=-0.0 size=N/A time=00:22:41.61 bitrate=N/A speed=15.4x    frame=32801 fps=370 q=-0.0 size=N/A time=00:22:48.07 bitrate=N/A speed=15.4x    frame=32979 fps=369 q=-0.0 size=N/A time=00:22:55.49 bitrate=N/A speed=15.4x    frame=33171 fps=369 q=-0.0 size=N/A time=00:23:03.50 bitrate=N/A speed=15.4x    frame=33357 fps=369 q=-0.0 size=N/A time=00:23:11.26 bitrate=N/A speed=15.4x    frame=33531 fps=369 q=-0.0 size=N/A time=00:23:18.52 bitrate=N/A speed=15.4x    frame=33690 fps=369 q=-0.0 size=N/A time=00:23:25.15 bitrate=N/A speed=15.4x    frame=33822 fps=368 q=-0.0 size=N/A time=00:23:30.65 bitrate=N/A speed=15.4x    frame=33971 fps=368 q=-0.0 size=N/A time=00:23:36.87 bitrate=N/A speed=15.3x    frame=34145 fps=368 q=-0.0 size=N/A time=00:23:44.13 bitrate=N/A speed=15.3x    frame=34303 fps=367 q=-0.0 size=N/A time=00:23:50.72 bitrate=N/A speed=15.3x    frame=34435 fps=367 q=-0.0 size=N/A time=00:23:56.22 bitrate=N/A speed=15.3x    frame=34618 fps=367 q=-0.0 size=N/A time=00:24:03.85 bitrate=N/A speed=15.3x    [Parsed_ssim_16 @ 0000016a5a1f8740] SSIM Y:0.994164 (22.338837) U:0.993995 (22.214823) V:0.993601 (21.939079) All:0.994042 (22.249016)
[out#0/null @ 0000016a4d0d3a00] video:14903KiB audio:271276KiB subtitle:0KiB other streams:0KiB global headers:0KiB muxing overhead: unknown
frame=34683 fps=367 q=-0.0 Lsize=N/A time=00:24:06.57 bitrate=N/A speed=15.3x    
